<svg width="24" height="24" viewBox="0 0 24 24" fill="none" xmlns="http://www.w3.org/2000/svg">
<mask id="mask0_102_8" style="mask-type:alpha" maskUnits="userSpaceOnUse" x="0" y="0" width="24" height="24">
<rect width="24" height="24" fill="#D9D9D9"/>
</mask>
<g mask="url(#mask0_102_8)">
<path d="M6 20C5.45 20 4.97917 19.8042 4.5875 19.4125C4.19583 19.0208 4 18.55 4 18V16C4 15.7167 4.09583 15.4792 4.2875 15.2875C4.47917 15.0958 4.71667 15 5 15C5.28333 15 5.52083 15.0958 5.7125 15.2875C5.90417 15.4792 6 15.7167 6 16V18H18V16C18 15.7167 18.0958 15.4792 18.2875 15.2875C18.4792 15.0958 18.7167 15 19 15C19.2833 15 19.5208 15.0958 19.7125 15.2875C19.9042 15.4792 20 15.7167 20 16V18C20 18.55 19.8042 19.0208 19.4125 19.4125C19.0208 19.8042 18.55 20 18 20H6ZM11 7.85L9.125 9.725C8.925 9.925 8.6875 10.0208 8.4125 10.0125C8.1375 10.0042 7.9 9.9 7.7 9.7C7.51667 9.5 7.42083 9.26667 7.4125 9C7.40417 8.73334 7.5 8.5 7.7 8.3L11.3 4.7C11.4 4.6 11.5083 4.52917 11.625 4.4875C11.7417 4.44584 11.8667 4.425 12 4.425C12.1333 4.425 12.2583 4.44584 12.375 4.4875C12.4917 4.52917 12.6 4.6 12.7 4.7L16.3 8.3C16.5 8.5 16.5958 8.73334 16.5875 9C16.5792 9.26667 16.4833 9.5 16.3 9.7C16.1 9.9 15.8625 10.0042 15.5875 10.0125C15.3125 10.0208 15.075 9.925 14.875 9.725L13 7.85V15C13 15.2833 12.9042 15.5208 12.7125 15.7125C12.5208 15.9042 12.2833 16 12 16C11.7167 16 11.4792 15.9042 11.2875 15.7125C11.0958 15.5208 11 15.2833 11 15V7.85Z" fill="#1C1B1F"/>
</g>
</svg>
